<svg viewBox="0 0 400 240" xmlns="http://www.w3.org/2000/svg">
  <rect width="400" height="240" fill="#F7F6F3"/>
  <rect x="130" y="46" width="140" height="160" rx="14" fill="#ffffff" stroke="#ECECEC" stroke-width="2"/>
  <rect x="164" y="38" width="72" height="18" rx="6" fill="#15161A"/>
  <g>
    <rect x="150" y="76" width="20" height="20" rx="5" fill="#1E8449"/>
    <path d="M155 86 l4 4 8-8" stroke="#ffffff" stroke-width="3" fill="none" stroke-linecap="round" stroke-linejoin="round"/>
    <line x1="182" y1="86" x2="250" y2="86" stroke="#ECECEC" stroke-width="6" stroke-linecap="round"/>
  </g>
  <g>
    <rect x="150" y="112" width="20" height="20" rx="5" fill="#1E8449"/>
    <path d="M155 122 l4 4 8-8" stroke="#ffffff" stroke-width="3" fill="none" stroke-linecap="round" stroke-linejoin="round"/>
    <line x1="182" y1="122" x2="240" y2="122" stroke="#ECECEC" stroke-width="6" stroke-linecap="round"/>
  </g>
  <g>
    <rect x="150" y="148" width="20" height="20" rx="5" fill="#D93A31"/>
    <line x1="182" y1="158" x2="250" y2="158" stroke="#ECECEC" stroke-width="6" stroke-linecap="round"/>
  </g>
  <g>
    <rect x="150" y="184" width="20" height="20" rx="5" fill="#ffffff" stroke="#D93A31" stroke-width="3"/>
    <line x1="182" y1="194" x2="220" y2="194" stroke="#ECECEC" stroke-width="6" stroke-linecap="round"/>
  </g>
</svg>
